<svg xmlns="http://www.w3.org/2000/svg" xmlns:xlink="http://www.w3.org/1999/xlink" version="1.1" x="0px" y="0px" viewBox="0 0 256 320" style="enable-background:new 0 0 256 256;" xml:space="preserve"><g><g><g><path d="M162,94.8c-1.3,0.4-2.3,1.3-2.3,1.3l-25.5,25.5c0,0,0,0,0,0s0,0,0,0c-0.1,0.1-0.1,0.1-0.2,0.2c-0.2,0.1-0.3,0.3-0.5,0.4     c0,0-0.1,0-0.1,0.1c-0.2,0.1-0.4,0.2-0.6,0.3c-0.1,0-0.1,0-0.2,0c-0.2,0.1-0.4,0.1-0.6,0.2c-0.1,0-0.2,0-0.3,0     c-0.2,0-0.4,0.1-0.6,0.1c-0.2,0-0.4,0-0.6-0.1c-0.1,0-0.2,0-0.2,0c-0.8-0.1-1.5-0.5-2.1-1.1c0,0-0.1-0.1-0.1-0.1c0,0,0,0,0,0     s0,0,0,0l-25.5-25.4c-1.2-1.2-3.8-2.8-6.6,0c-1.8,1.8-1.7,3.2-1.3,4.3c0.4,1.3,1.3,2.3,1.3,2.3l25.4,25.4c0,0,0,0,0,0     c0.2,0.2,0.4,0.4,0.6,0.7c0,0.1,0.1,0.1,0.1,0.2c0.1,0.2,0.2,0.4,0.3,0.6c0.1,0.1,0.1,0.3,0.1,0.4c0,0.1,0.1,0.3,0.1,0.4     c0,0.1,0,0.3,0,0.4c0,0.1,0,0.3,0,0.4c0,0.1,0,0.2,0,0.4c0,0.2,0,0.3,0,0.5c0,0.1-0.1,0.2-0.1,0.3c0,0.2-0.1,0.4-0.2,0.5     c0,0.1-0.1,0.2-0.1,0.3c-0.1,0.2-0.2,0.3-0.3,0.5c-0.1,0.1-0.2,0.2-0.2,0.3c-0.1,0.1-0.2,0.3-0.3,0.4l-25.5,25.5     c-1.2,1.2-2.8,3.8,0,6.6c2.8,2.8,5.3,1.2,6.6,0l25.4-25.4c0.1-0.1,0.2-0.2,0.3-0.3c0.1-0.1,0.2-0.2,0.3-0.3     c0.1-0.1,0.3-0.1,0.4-0.2c0.1-0.1,0.2-0.1,0.4-0.2c0.1-0.1,0.3-0.1,0.5-0.1c0.1,0,0.2-0.1,0.3-0.1c0.1,0,0.3,0,0.4,0     c0.1,0,0.3,0,0.4,0s0.3,0,0.4,0c0.1,0,0.3,0,0.4,0c0.1,0,0.2,0.1,0.3,0.1c0.2,0,0.3,0.1,0.5,0.1c0.1,0.1,0.2,0.1,0.4,0.2     c0.1,0.1,0.3,0.1,0.4,0.2c0.1,0.1,0.2,0.2,0.3,0.3c0.1,0.1,0.2,0.2,0.3,0.3l25.5,25.5c1.2,1.2,3.8,2.8,6.6,0     c2.8-2.8,1.2-5.3,0-6.6l-25.4-25.5c-0.1-0.1-0.2-0.2-0.3-0.4c-0.1-0.1-0.2-0.2-0.2-0.3c-0.1-0.1-0.2-0.3-0.2-0.5     c0-0.1-0.1-0.2-0.2-0.3c-0.1-0.2-0.1-0.3-0.1-0.5c0-0.1-0.1-0.2-0.1-0.3c0-0.2,0-0.3,0-0.5c0-0.1,0-0.2,0-0.4c0-0.1,0-0.2,0-0.4     c0-0.2,0-0.3,0-0.5c0-0.1,0.1-0.2,0.1-0.3c0-0.2,0.1-0.3,0.2-0.5c0-0.1,0.1-0.2,0.1-0.3c0.1-0.2,0.2-0.3,0.3-0.5     c0.1-0.1,0.2-0.2,0.2-0.3c0.1-0.1,0.2-0.3,0.3-0.4l25.4-25.5c1.2-1.2,2.8-3.8,0-6.6C164.5,94.3,163.1,94.4,162,94.8z"/><path d="M246,8H10c-1.1,0-2,0.9-2,2v236c0,1.1,0.9,2,2,2h236c1.1,0,2-0.9,2-2V10C248,8.9,247.1,8,246,8z M139.2,83.8     c-0.3,0.3-0.6,0.4-1.2,0.3C138.3,83.9,138.6,83.6,139.2,83.8z M138,84.1C138,84.1,138,84.1,138,84.1C138,84.1,138,84.1,138,84.1     C138,84.1,138,84.1,138,84.1z M84.1,98.6C84.1,98.6,84.1,98.6,84.1,98.6C84.1,98.6,84.1,98.6,84.1,98.6     C84.1,98.6,84.1,98.6,84.1,98.6z M84.1,98.6c-0.2-0.3-0.5-0.7-0.3-1.2C84.1,97.7,84.2,98.1,84.1,98.6z M172.5,153.7     c0.4,0.4,4.1,4.2,4.1,9.7c0,2.3-0.7,5.8-4.1,9.2c-2.7,2.7-5.9,4.1-9.2,4.1c-1.3,0-2.7-0.2-4-0.7c-3.3-1.1-5.4-3.2-5.7-3.4     l-22.4-22.4l-22.4,22.4c-0.4,0.4-4.3,4.1-9.7,4.1c-2.3,0-5.8-0.7-9.2-4.1c-3.8-3.8-5-8.5-3.4-13.2c1.1-3.3,3.2-5.4,3.4-5.7     l22.4-22.4L90,108.9c-0.2-0.2-2.3-2.4-3.4-5.7C85,98.5,86.2,93.8,90,90c3.4-3.4,6.9-4.1,9.2-4.1c5.4,0,9.2,3.7,9.7,4.1l22.4,22.4     L153.6,90c0.2-0.2,2.4-2.3,5.7-3.4c4.7-1.6,9.4-0.4,13.2,3.4c3.4,3.4,4.1,6.9,4.1,9.2c0,5.4-3.7,9.2-4.1,9.7l-22.4,22.4     L172.5,153.7z"/></g></g></g><text x="0" y="271" fill="#000000" font-size="5px" font-weight="bold" font-family="'Helvetica Neue', Helvetica, Arial-Unicode, Arial, Sans-serif">Created by Shocho</text><text x="0" y="276" fill="#000000" font-size="5px" font-weight="bold" font-family="'Helvetica Neue', Helvetica, Arial-Unicode, Arial, Sans-serif">from the Noun Project</text></svg>