{
    "asset" : {
        "generator" : "Khronos glTF Blender I/O v1.1.46",
        "version" : "2.0"
    },
    "scene" : 0,
    "scenes" : [
        {
            "name" : "Scene",
            "nodes" : [
                0,
                10
            ]
        }
    ],
    "nodes" : [
        {
            "mesh" : 0,
            "name" : "SketchUp.006",
            "rotation" : [
                0,
                0.7071068286895752,
                0,
                0.7071067094802856
            ],
            "scale" : [
                0.01617121882736683,
                0.01617121882736683,
                0.01617121882736683
            ],
            "translation" : [
                -0.37551721930503845,
                0.6402165293693542,
                0.18291516602039337
            ]
        },
        {
            "mesh" : 1,
            "name" : "Cylinder.008",
            "translation" : [
                0.09493345022201538,
                -0.014094710350036621,
                -0.09754155576229095
            ]
        },
        {
            "children" : [
                1
            ],
            "mesh" : 2,
            "name" : "Cylinder.012",
            "rotation" : [
                0,
                0.7071068286895752,
                0,
                0.7071068286895752
            ],
            "scale" : [
                1.1294119358062744,
                1,
                2
            ],
            "translation" : [
                0,
                -0.00774461030960083,
                0
            ]
        },
        {
            "children" : [
                2
            ],
            "mesh" : 3,
            "name" : "Plane",
            "rotation" : [
                0.5000001192092896,
                -0.5000001788139343,
                -0.49999988079071045,
                0.49999991059303284
            ],
            "scale" : [
                30.91912841796875,
                61.83827590942383,
                54.75263595581055
            ],
            "translation" : [
                -0.001079559326171875,
                -0.6643218994140625,
                1.2803163528442383
            ]
        },
        {
            "children" : [
                3
            ],
            "mesh" : 4,
            "name" : "SketchUp.004",
            "translation" : [
                -0.028743743896484375,
                0.061191558837890625,
                2.677724838256836
            ]
        },
        {
            "children" : [
                4
            ],
            "mesh" : 5,
            "name" : "SketchUp.003",
            "rotation" : [
                0,
                -0.9997497797012329,
                0,
                0.022370517253875732
            ],
            "translation" : [
                0,
                -3.814697265625e-06,
                0
            ]
        },
        {
            "children" : [
                5
            ],
            "mesh" : 6,
            "name" : "SketchUp.005",
            "rotation" : [
                0,
                -0.5971516370773315,
                0,
                0.8021283745765686
            ],
            "translation" : [
                3.90830135345459,
                3.7814903259277344,
                9.450735092163086
            ]
        },
        {
            "children" : [
                6
            ],
            "mesh" : 7,
            "name" : "SketchUp.013",
            "rotation" : [
                0,
                -0.7784523963928223,
                0,
                0.6277036666870117
            ],
            "translation" : [
                -9.849016189575195,
                2.8260269165039062,
                2.663116455078125
            ]
        },
        {
            "children" : [
                7
            ],
            "mesh" : 8,
            "name" : "SketchUp.009",
            "rotation" : [
                0,
                -0.07369846105575562,
                0,
                0.9972806572914124
            ],
            "translation" : [
                -4.1225385665893555,
                1.1811027526855469,
                0.0041961669921875
            ]
        },
        {
            "mesh" : 9,
            "name" : "SketchUp.010",
            "rotation" : [
                0,
                -0.18036210536956787,
                0,
                0.9836003184318542
            ],
            "translation" : [
                4.135248184204102,
                1.1868438720703125,
                -0.011217117309570312
            ]
        },
        {
            "children" : [
                8,
                9
            ],
            "mesh" : 10,
            "name" : "SketchUp.011",
            "rotation" : [
                0,
                0.7071067690849304,
                0,
                0.7071067690849304
            ],
            "scale" : [
                0.01617121882736683,
                0.01617121882736683,
                0.01617121882736683
            ],
            "translation" : [
                -0.350479394197464,
                0.8291042447090149,
                0.18302924931049347
            ]
        }
    ],
    "materials" : [
        {
            "doubleSided" : true,
            "emissiveFactor" : [
                0,
                0,
                0
            ],
            "name" : "material",
            "pbrMetallicRoughness" : {
                "baseColorFactor" : [
                    1,
                    1,
                    1,
                    1
                ],
                "metallicFactor" : 0,
                "roughnessFactor" : 0.5
            }
        },
        {
            "doubleSided" : true,
            "emissiveFactor" : [
                0,
                0,
                0
            ],
            "name" : "material_0",
            "pbrMetallicRoughness" : {
                "baseColorFactor" : [
                    0.6431373357772827,
                    0.6980392336845398,
                    0.7333332896232605,
                    1
                ],
                "metallicFactor" : 0,
                "roughnessFactor" : 0.5
            }
        }
    ],
    "meshes" : [
        {
            "name" : "ID123",
            "primitives" : [
                {
                    "attributes" : {
                        "POSITION" : 0,
                        "NORMAL" : 1
                    },
                    "indices" : 2,
                    "material" : 0
                }
            ]
        },
        {
            "name" : "Cylinder.021",
            "primitives" : [
                {
                    "attributes" : {
                        "POSITION" : 3,
                        "NORMAL" : 4,
                        "TEXCOORD_0" : 5
                    },
                    "indices" : 6
                }
            ]
        },
        {
            "name" : "Cylinder.022",
            "primitives" : [
                {
                    "attributes" : {
                        "POSITION" : 7,
                        "NORMAL" : 8,
                        "TEXCOORD_0" : 9
                    },
                    "indices" : 10
                }
            ]
        },
        {
            "name" : "Plane.003",
            "primitives" : [
                {
                    "attributes" : {
                        "POSITION" : 11,
                        "NORMAL" : 12,
                        "TEXCOORD_0" : 13
                    },
                    "indices" : 14
                }
            ]
        },
        {
            "name" : "ID107",
            "primitives" : [
                {
                    "attributes" : {
                        "POSITION" : 15,
                        "NORMAL" : 16
                    },
                    "indices" : 17,
                    "material" : 0
                }
            ]
        },
        {
            "name" : "ID99",
            "primitives" : [
                {
                    "attributes" : {
                        "POSITION" : 18,
                        "NORMAL" : 19
                    },
                    "indices" : 20,
                    "material" : 0
                },
                {
                    "attributes" : {
                        "POSITION" : 21,
                        "NORMAL" : 22
                    },
                    "indices" : 23,
                    "material" : 1
                }
            ]
        },
        {
            "name" : "ID115",
            "primitives" : [
                {
                    "attributes" : {
                        "POSITION" : 24,
                        "NORMAL" : 25
                    },
                    "indices" : 26,
                    "material" : 0
                }
            ]
        },
        {
            "name" : "ID179",
            "primitives" : [
                {
                    "attributes" : {
                        "POSITION" : 27,
                        "NORMAL" : 28
                    },
                    "indices" : 29,
                    "material" : 0
                }
            ]
        },
        {
            "name" : "ID147",
            "primitives" : [
                {
                    "attributes" : {
                        "POSITION" : 30,
                        "NORMAL" : 31
                    },
                    "indices" : 32,
                    "material" : 0
                }
            ]
        },
        {
            "name" : "ID155",
            "primitives" : [
                {
                    "attributes" : {
                        "POSITION" : 33,
                        "NORMAL" : 34
                    },
                    "indices" : 35,
                    "material" : 0
                }
            ]
        },
        {
            "name" : "ID163",
            "primitives" : [
                {
                    "attributes" : {
                        "POSITION" : 36,
                        "NORMAL" : 37
                    },
                    "indices" : 38,
                    "material" : 0
                }
            ]
        }
    ],
    "accessors" : [
        {
            "bufferView" : 0,
            "componentType" : 5126,
            "count" : 1540,
            "max" : [
                2.520456075668335,
                17.293310165405273,
                4.294567108154297
            ],
            "min" : [
                -2.5101230144500732,
                -3.501000165939331,
                0.01564479060471058
            ],
            "type" : "VEC3"
        },
        {
            "bufferView" : 1,
            "componentType" : 5126,
            "count" : 1540,
            "type" : "VEC3"
        },
        {
            "bufferView" : 2,
            "componentType" : 5123,
            "count" : 1566,
            "type" : "SCALAR"
        },
        {
            "bufferView" : 3,
            "componentType" : 5126,
            "count" : 240,
            "max" : [
                0.013600299134850502,
                0.006350006442517042,
                0.20938321948051453
            ],
            "min" : [
                -0.20346732437610626,
                -0.006349995732307434,
                -0.014300200156867504
            ],
            "type" : "VEC3"
        },
        {
            "bufferView" : 4,
            "componentType" : 5126,
            "count" : 240,
            "type" : "VEC3"
        },
        {
            "bufferView" : 5,
            "componentType" : 5126,
            "count" : 240,
            "type" : "VEC2"
        },
        {
            "bufferView" : 6,
            "componentType" : 5123,
            "count" : 432,
            "type" : "SCALAR"
        },
        {
            "bufferView" : 7,
            "componentType" : 5126,
            "count" : 480,
            "max" : [
                0.12241265922784805,
                0.007744619157165289,
                0.1254577338695526
            ],
            "min" : [
                -0.1224125400185585,
                -0.007744604256004095,
                -0.1254577338695526
            ],
            "type" : "VEC3"
        },
        {
            "bufferView" : 8,
            "componentType" : 5126,
            "count" : 480,
            "type" : "VEC3"
        },
        {
            "bufferView" : 9,
            "componentType" : 5126,
            "count" : 480,
            "type" : "VEC2"
        },
        {
            "bufferView" : 10,
            "componentType" : 5123,
            "count" : 720,
            "type" : "SCALAR"
        },
        {
            "bufferView" : 11,
            "componentType" : 5126,
            "count" : 24,
            "max" : [
                0.30480000376701355,
                0.008961175568401814,
                0.30480000376701355
            ],
            "min" : [
                -0.30480000376701355,
                0,
                -0.30480000376701355
            ],
            "type" : "VEC3"
        },
        {
            "bufferView" : 12,
            "componentType" : 5126,
            "count" : 24,
            "type" : "VEC3"
        },
        {
            "bufferView" : 13,
            "componentType" : 5126,
            "count" : 24,
            "type" : "VEC2"
        },
        {
            "bufferView" : 14,
            "componentType" : 5123,
            "count" : 36,
            "type" : "SCALAR"
        },
        {
            "bufferView" : 15,
            "componentType" : 5126,
            "count" : 530,
            "max" : [
                2.68496036529541,
                2.645345687866211,
                0.29073143005371094
            ],
            "min" : [
                -2.684947967529297,
                -2.6995038986206055,
                -0.9622898101806641
            ],
            "type" : "VEC3"
        },
        {
            "bufferView" : 16,
            "componentType" : 5126,
            "count" : 530,
            "type" : "VEC3"
        },
        {
            "bufferView" : 17,
            "componentType" : 5123,
            "count" : 648,
            "type" : "SCALAR"
        },
        {
            "bufferView" : 18,
            "componentType" : 5126,
            "count" : 1026,
            "max" : [
                1.045267105102539,
                0.8173904418945312,
                1.558812141418457
            ],
            "min" : [
                -1.102757453918457,
                -0.7383289337158203,
                -0.6205472946166992
            ],
            "type" : "VEC3"
        },
        {
            "bufferView" : 19,
            "componentType" : 5126,
            "count" : 1026,
            "type" : "VEC3"
        },
        {
            "bufferView" : 20,
            "componentType" : 5123,
            "count" : 1101,
            "type" : "SCALAR"
        },
        {
            "bufferView" : 21,
            "componentType" : 5126,
            "count" : 3,
            "max" : [
                -1.0221881866455078,
                -0.460479736328125,
                0.8527126312255859
            ],
            "min" : [
                -1.082427978515625,
                -0.5179595947265625,
                0.6525726318359375
            ],
            "type" : "VEC3"
        },
        {
            "bufferView" : 22,
            "componentType" : 5126,
            "count" : 3,
            "type" : "VEC3"
        },
        {
            "bufferView" : 23,
            "componentType" : 5123,
            "count" : 3,
            "type" : "SCALAR"
        },
        {
            "bufferView" : 24,
            "componentType" : 5126,
            "count" : 498,
            "max" : [
                0.7708520889282227,
                0.95587158203125,
                0.7529726028442383
            ],
            "min" : [
                -0.7834987640380859,
                -0.8773479461669922,
                -0.7542572021484375
            ],
            "type" : "VEC3"
        },
        {
            "bufferView" : 25,
            "componentType" : 5126,
            "count" : 498,
            "type" : "VEC3"
        },
        {
            "bufferView" : 26,
            "componentType" : 5123,
            "count" : 498,
            "type" : "SCALAR"
        },
        {
            "bufferView" : 27,
            "componentType" : 5126,
            "count" : 430,
            "max" : [
                4.889256477355957,
                2.789396286010742,
                10.485068321228027
            ],
            "min" : [
                -1.076277732849121,
                0.03797721862792969,
                -1.2030880451202393
            ],
            "type" : "VEC3"
        },
        {
            "bufferView" : 28,
            "componentType" : 5126,
            "count" : 430,
            "type" : "VEC3"
        },
        {
            "bufferView" : 29,
            "componentType" : 5123,
            "count" : 450,
            "type" : "SCALAR"
        },
        {
            "bufferView" : 30,
            "componentType" : 5126,
            "count" : 422,
            "max" : [
                1.1426920890808105,
                2.8048582077026367,
                3.5842995643615723
            ],
            "min" : [
                -10.889575004577637,
                0.049178123474121094,
                -0.9408851265907288
            ],
            "type" : "VEC3"
        },
        {
            "bufferView" : 31,
            "componentType" : 5126,
            "count" : 422,
            "type" : "VEC3"
        },
        {
            "bufferView" : 32,
            "componentType" : 5123,
            "count" : 450,
            "type" : "SCALAR"
        },
        {
            "bufferView" : 33,
            "componentType" : 5126,
            "count" : 433,
            "max" : [
                10.885257720947266,
                2.7774572372436523,
                3.599714756011963
            ],
            "min" : [
                -1.147003173828125,
                0.026006698608398438,
                -0.9254699349403381
            ],
            "type" : "VEC3"
        },
        {
            "bufferView" : 34,
            "componentType" : 5126,
            "count" : 433,
            "type" : "VEC3"
        },
        {
            "bufferView" : 35,
            "componentType" : 5123,
            "count" : 450,
            "type" : "SCALAR"
        },
        {
            "bufferView" : 36,
            "componentType" : 5126,
            "count" : 2661,
            "max" : [
                4.960526466369629,
                1.8110551834106445,
                0.8368746042251587
            ],
            "min" : [
                -4.960525035858154,
                -1.8110532760620117,
                -0.8368764519691467
            ],
            "type" : "VEC3"
        },
        {
            "bufferView" : 37,
            "componentType" : 5126,
            "count" : 2661,
            "type" : "VEC3"
        },
        {
            "bufferView" : 38,
            "componentType" : 5123,
            "count" : 2700,
            "type" : "SCALAR"
        }
    ],
    "bufferViews" : [
        {
            "buffer" : 0,
            "byteLength" : 18480,
            "byteOffset" : 0
        },
        {
            "buffer" : 0,
            "byteLength" : 18480,
            "byteOffset" : 18480
        },
        {
            "buffer" : 0,
            "byteLength" : 3132,
            "byteOffset" : 36960
        },
        {
            "buffer" : 0,
            "byteLength" : 2880,
            "byteOffset" : 40092
        },
        {
            "buffer" : 0,
            "byteLength" : 2880,
            "byteOffset" : 42972
        },
        {
            "buffer" : 0,
            "byteLength" : 1920,
            "byteOffset" : 45852
        },
        {
            "buffer" : 0,
            "byteLength" : 864,
            "byteOffset" : 47772
        },
        {
            "buffer" : 0,
            "byteLength" : 5760,
            "byteOffset" : 48636
        },
        {
            "buffer" : 0,
            "byteLength" : 5760,
            "byteOffset" : 54396
        },
        {
            "buffer" : 0,
            "byteLength" : 3840,
            "byteOffset" : 60156
        },
        {
            "buffer" : 0,
            "byteLength" : 1440,
            "byteOffset" : 63996
        },
        {
            "buffer" : 0,
            "byteLength" : 288,
            "byteOffset" : 65436
        },
        {
            "buffer" : 0,
            "byteLength" : 288,
            "byteOffset" : 65724
        },
        {
            "buffer" : 0,
            "byteLength" : 192,
            "byteOffset" : 66012
        },
        {
            "buffer" : 0,
            "byteLength" : 72,
            "byteOffset" : 66204
        },
        {
            "buffer" : 0,
            "byteLength" : 6360,
            "byteOffset" : 66276
        },
        {
            "buffer" : 0,
            "byteLength" : 6360,
            "byteOffset" : 72636
        },
        {
            "buffer" : 0,
            "byteLength" : 1296,
            "byteOffset" : 78996
        },
        {
            "buffer" : 0,
            "byteLength" : 12312,
            "byteOffset" : 80292
        },
        {
            "buffer" : 0,
            "byteLength" : 12312,
            "byteOffset" : 92604
        },
        {
            "buffer" : 0,
            "byteLength" : 2202,
            "byteOffset" : 104916
        },
        {
            "buffer" : 0,
            "byteLength" : 36,
            "byteOffset" : 107120
        },
        {
            "buffer" : 0,
            "byteLength" : 36,
            "byteOffset" : 107156
        },
        {
            "buffer" : 0,
            "byteLength" : 6,
            "byteOffset" : 107192
        },
        {
            "buffer" : 0,
            "byteLength" : 5976,
            "byteOffset" : 107200
        },
        {
            "buffer" : 0,
            "byteLength" : 5976,
            "byteOffset" : 113176
        },
        {
            "buffer" : 0,
            "byteLength" : 996,
            "byteOffset" : 119152
        },
        {
            "buffer" : 0,
            "byteLength" : 5160,
            "byteOffset" : 120148
        },
        {
            "buffer" : 0,
            "byteLength" : 5160,
            "byteOffset" : 125308
        },
        {
            "buffer" : 0,
            "byteLength" : 900,
            "byteOffset" : 130468
        },
        {
            "buffer" : 0,
            "byteLength" : 5064,
            "byteOffset" : 131368
        },
        {
            "buffer" : 0,
            "byteLength" : 5064,
            "byteOffset" : 136432
        },
        {
            "buffer" : 0,
            "byteLength" : 900,
            "byteOffset" : 141496
        },
        {
            "buffer" : 0,
            "byteLength" : 5196,
            "byteOffset" : 142396
        },
        {
            "buffer" : 0,
            "byteLength" : 5196,
            "byteOffset" : 147592
        },
        {
            "buffer" : 0,
            "byteLength" : 900,
            "byteOffset" : 152788
        },
        {
            "buffer" : 0,
            "byteLength" : 31932,
            "byteOffset" : 153688
        },
        {
            "buffer" : 0,
            "byteLength" : 31932,
            "byteOffset" : 185620
        },
        {
            "buffer" : 0,
            "byteLength" : 5400,
            "byteOffset" : 217552
        }
    ],
    "buffers" : [
        {
            "byteLength" : 222952,
            "uri" : "data:application/octet-stream;base64,"
        }
    ]
}
