{
    "asset" : {
        "generator" : "Khronos glTF Blender I/O v1.1.46",
        "version" : "2.0"
    },
    "scene" : 0,
    "scenes" : [
        {
            "name" : "Scene",
            "nodes" : [
                0,
                1,
                2,
                3,
                4
            ]
        }
    ],
    "nodes" : [
        {
            "mesh" : 0,
            "name" : "Cylinder.015",
            "translation" : [
                -1.1192902326583862,
                0.01996171474456787,
                0.6001920700073242
            ]
        },
        {
            "mesh" : 1,
            "name" : "PS4 Base",
            "rotation" : [
                0,
                0.69019615650177,
                0,
                0.7236223220825195
            ],
            "scale" : [
                0.1366911381483078,
                0.136691153049469,
                0.1366911381483078
            ],
            "translation" : [
                -0.014945030212402344,
                1.0900871753692627,
                1.409849762916565
            ]
        },
        {
            "mesh" : 2,
            "name" : "computer",
            "rotation" : [
                0,
                -0.01479795016348362,
                0,
                0.9998905062675476
            ],
            "scale" : [
                0.859375,
                0.7291666269302368,
                0.375
            ],
            "translation" : [
                -0.04907719045877457,
                0.8608487844467163,
                1.4011225700378418
            ]
        },
        {
            "mesh" : 3,
            "name" : "TABLE",
            "translation" : [
                -0.04278438165783882,
                0.6134767532348633,
                0.34809765219688416
            ]
        },
        {
            "mesh" : 4,
            "name" : "Cube",
            "translation" : [
                -0.03979913890361786,
                0.3090353310108185,
                1.316186547279358
            ]
        }
    ],
    "materials" : [
        {
            "doubleSided" : true,
            "emissiveFactor" : [
                0,
                0,
                0
            ],
            "name" : "Material.003",
            "pbrMetallicRoughness" : {
                "baseColorFactor" : [
                    0,
                    0,
                    0,
                    1
                ],
                "metallicFactor" : 0,
                "roughnessFactor" : 1
            }
        },
        {
            "doubleSided" : true,
            "emissiveFactor" : [
                0,
                0,
                0
            ],
            "name" : "Material.001",
            "pbrMetallicRoughness" : {
                "baseColorFactor" : [
                    0,
                    0,
                    0,
                    1
                ],
                "metallicFactor" : 0,
                "roughnessFactor" : 1
            }
        },
        {
            "doubleSided" : true,
            "emissiveFactor" : [
                0,
                0,
                0
            ],
            "name" : "Material.002",
            "pbrMetallicRoughness" : {
                "baseColorFactor" : [
                    0,
                    0,
                    0,
                    1
                ],
                "metallicFactor" : 0,
                "roughnessFactor" : 0.5
            }
        }
    ],
    "meshes" : [
        {
            "name" : "Cylinder.008",
            "primitives" : [
                {
                    "attributes" : {
                        "POSITION" : 0,
                        "NORMAL" : 1,
                        "TEXCOORD_0" : 2
                    },
                    "indices" : 3
                }
            ]
        },
        {
            "name" : "Cube.004",
            "primitives" : [
                {
                    "attributes" : {
                        "POSITION" : 4,
                        "NORMAL" : 5,
                        "TEXCOORD_0" : 6
                    },
                    "indices" : 7,
                    "material" : 0
                },
                {
                    "attributes" : {
                        "POSITION" : 8,
                        "NORMAL" : 9,
                        "TEXCOORD_0" : 10
                    },
                    "indices" : 11,
                    "material" : 1
                },
                {
                    "attributes" : {
                        "POSITION" : 12,
                        "NORMAL" : 13,
                        "TEXCOORD_0" : 14
                    },
                    "indices" : 15,
                    "material" : 2
                }
            ]
        },
        {
            "name" : "Cube.006",
            "primitives" : [
                {
                    "attributes" : {
                        "POSITION" : 16,
                        "NORMAL" : 17,
                        "TEXCOORD_0" : 18
                    },
                    "indices" : 19
                }
            ]
        },
        {
            "name" : "Plane",
            "primitives" : [
                {
                    "attributes" : {
                        "POSITION" : 20,
                        "NORMAL" : 21,
                        "TEXCOORD_0" : 22
                    },
                    "indices" : 23
                }
            ]
        },
        {
            "name" : "Cube.005",
            "primitives" : [
                {
                    "attributes" : {
                        "POSITION" : 24,
                        "NORMAL" : 25,
                        "TEXCOORD_0" : 26
                    },
                    "indices" : 27
                }
            ]
        }
    ],
    "accessors" : [
        {
            "bufferView" : 0,
            "componentType" : 5126,
            "count" : 192,
            "max" : [
                1.2687287330627441,
                0.016365647315979004,
                1.2687287330627441
            ],
            "min" : [
                -1.26872718334198,
                -0.016365647315979004,
                -1.26872718334198
            ],
            "type" : "VEC3"
        },
        {
            "bufferView" : 1,
            "componentType" : 5126,
            "count" : 192,
            "type" : "VEC3"
        },
        {
            "bufferView" : 2,
            "componentType" : 5126,
            "count" : 192,
            "type" : "VEC2"
        },
        {
            "bufferView" : 3,
            "componentType" : 5123,
            "count" : 372,
            "type" : "SCALAR"
        },
        {
            "bufferView" : 4,
            "componentType" : 5126,
            "count" : 1283,
            "max" : [
                1,
                0.10000000149011612,
                1.0499999523162842
            ],
            "min" : [
                -1,
                -0.051125410944223404,
                -1
            ],
            "type" : "VEC3"
        },
        {
            "bufferView" : 5,
            "componentType" : 5126,
            "count" : 1283,
            "type" : "VEC3"
        },
        {
            "bufferView" : 6,
            "componentType" : 5126,
            "count" : 1283,
            "type" : "VEC2"
        },
        {
            "bufferView" : 7,
            "componentType" : 5123,
            "count" : 3756,
            "type" : "SCALAR"
        },
        {
            "bufferView" : 8,
            "componentType" : 5126,
            "count" : 4774,
            "max" : [
                1,
                0.14352527260780334,
                0.9834337830543518
            ],
            "min" : [
                -1,
                0.0823410376906395,
                -1.0665662288665771
            ],
            "type" : "VEC3"
        },
        {
            "bufferView" : 9,
            "componentType" : 5126,
            "count" : 4774,
            "type" : "VEC3"
        },
        {
            "bufferView" : 10,
            "componentType" : 5126,
            "count" : 4774,
            "type" : "VEC2"
        },
        {
            "bufferView" : 11,
            "componentType" : 5123,
            "count" : 8991,
            "type" : "SCALAR"
        },
        {
            "bufferView" : 12,
            "componentType" : 5126,
            "count" : 1384,
            "max" : [
                0.8931204080581665,
                0.14352527260780334,
                0.9703080058097839
            ],
            "min" : [
                -0.8679967522621155,
                0.0962677001953125,
                -0.08248431235551834
            ],
            "type" : "VEC3"
        },
        {
            "bufferView" : 13,
            "componentType" : 5126,
            "count" : 1384,
            "type" : "VEC3"
        },
        {
            "bufferView" : 14,
            "componentType" : 5126,
            "count" : 1384,
            "type" : "VEC2"
        },
        {
            "bufferView" : 15,
            "componentType" : 5123,
            "count" : 2724,
            "type" : "SCALAR"
        },
        {
            "bufferView" : 16,
            "componentType" : 5126,
            "count" : 72,
            "max" : [
                0.30489328503608704,
                0.30480003356933594,
                0.30480000376701355
            ],
            "min" : [
                -0.30480000376701355,
                -0.30480003356933594,
                -0.30480000376701355
            ],
            "type" : "VEC3"
        },
        {
            "bufferView" : 17,
            "componentType" : 5126,
            "count" : 72,
            "type" : "VEC3"
        },
        {
            "bufferView" : 18,
            "componentType" : 5126,
            "count" : 72,
            "type" : "VEC2"
        },
        {
            "bufferView" : 19,
            "componentType" : 5123,
            "count" : 108,
            "type" : "SCALAR"
        },
        {
            "bufferView" : 20,
            "componentType" : 5126,
            "count" : 190,
            "max" : [
                0.3254374861717224,
                0.028574999421834946,
                0.7000874876976013
            ],
            "min" : [
                -0.3254374861717224,
                -0.6096000671386719,
                -0.7000874876976013
            ],
            "type" : "VEC3"
        },
        {
            "bufferView" : 21,
            "componentType" : 5126,
            "count" : 190,
            "type" : "VEC3"
        },
        {
            "bufferView" : 22,
            "componentType" : 5126,
            "count" : 190,
            "type" : "VEC2"
        },
        {
            "bufferView" : 23,
            "componentType" : 5123,
            "count" : 336,
            "type" : "SCALAR"
        },
        {
            "bufferView" : 24,
            "componentType" : 5126,
            "count" : 24,
            "max" : [
                0.32275187969207764,
                0.30480000376701355,
                0.25486207008361816
            ],
            "min" : [
                -0.32275182008743286,
                -0.30480000376701355,
                -0.25486207008361816
            ],
            "type" : "VEC3"
        },
        {
            "bufferView" : 25,
            "componentType" : 5126,
            "count" : 24,
            "type" : "VEC3"
        },
        {
            "bufferView" : 26,
            "componentType" : 5126,
            "count" : 24,
            "type" : "VEC2"
        },
        {
            "bufferView" : 27,
            "componentType" : 5123,
            "count" : 36,
            "type" : "SCALAR"
        }
    ],
    "bufferViews" : [
        {
            "buffer" : 0,
            "byteLength" : 2304,
            "byteOffset" : 0
        },
        {
            "buffer" : 0,
            "byteLength" : 2304,
            "byteOffset" : 2304
        },
        {
            "buffer" : 0,
            "byteLength" : 1536,
            "byteOffset" : 4608
        },
        {
            "buffer" : 0,
            "byteLength" : 744,
            "byteOffset" : 6144
        },
        {
            "buffer" : 0,
            "byteLength" : 15396,
            "byteOffset" : 6888
        },
        {
            "buffer" : 0,
            "byteLength" : 15396,
            "byteOffset" : 22284
        },
        {
            "buffer" : 0,
            "byteLength" : 10264,
            "byteOffset" : 37680
        },
        {
            "buffer" : 0,
            "byteLength" : 7512,
            "byteOffset" : 47944
        },
        {
            "buffer" : 0,
            "byteLength" : 57288,
            "byteOffset" : 55456
        },
        {
            "buffer" : 0,
            "byteLength" : 57288,
            "byteOffset" : 112744
        },
        {
            "buffer" : 0,
            "byteLength" : 38192,
            "byteOffset" : 170032
        },
        {
            "buffer" : 0,
            "byteLength" : 17982,
            "byteOffset" : 208224
        },
        {
            "buffer" : 0,
            "byteLength" : 16608,
            "byteOffset" : 226208
        },
        {
            "buffer" : 0,
            "byteLength" : 16608,
            "byteOffset" : 242816
        },
        {
            "buffer" : 0,
            "byteLength" : 11072,
            "byteOffset" : 259424
        },
        {
            "buffer" : 0,
            "byteLength" : 5448,
            "byteOffset" : 270496
        },
        {
            "buffer" : 0,
            "byteLength" : 864,
            "byteOffset" : 275944
        },
        {
            "buffer" : 0,
            "byteLength" : 864,
            "byteOffset" : 276808
        },
        {
            "buffer" : 0,
            "byteLength" : 576,
            "byteOffset" : 277672
        },
        {
            "buffer" : 0,
            "byteLength" : 216,
            "byteOffset" : 278248
        },
        {
            "buffer" : 0,
            "byteLength" : 2280,
            "byteOffset" : 278464
        },
        {
            "buffer" : 0,
            "byteLength" : 2280,
            "byteOffset" : 280744
        },
        {
            "buffer" : 0,
            "byteLength" : 1520,
            "byteOffset" : 283024
        },
        {
            "buffer" : 0,
            "byteLength" : 672,
            "byteOffset" : 284544
        },
        {
            "buffer" : 0,
            "byteLength" : 288,
            "byteOffset" : 285216
        },
        {
            "buffer" : 0,
            "byteLength" : 288,
            "byteOffset" : 285504
        },
        {
            "buffer" : 0,
            "byteLength" : 192,
            "byteOffset" : 285792
        },
        {
            "buffer" : 0,
            "byteLength" : 72,
            "byteOffset" : 285984
        }
    ],
    "buffers" : [
        {
            "byteLength" : 286056,
            "uri" : "data:application/octet-stream;base64,"
        }
    ]
}
